<?xml version="1.0" encoding="UTF-8"?>
<svg version="1.1" xmlns="http://www.w3.org/2000/svg" width="213" height="100">
<path d="M0 0 C4.25932128 2.23304223 6.05547557 6.85575124 8.01171875 11.0546875 C8.50671875 12.0446875 8.50671875 12.0446875 9.01171875 13.0546875 C9.09480513 14.43016906 9.11907891 15.80954546 9.109375 17.1875 C9.10615234 17.99316406 9.10292969 18.79882812 9.09960938 19.62890625 C9.08704102 20.89154297 9.08704102 20.89154297 9.07421875 22.1796875 C9.06970703 23.02917969 9.06519531 23.87867187 9.06054688 24.75390625 C9.04874749 26.85419659 9.03081181 28.9544508 9.01171875 31.0546875 C12.29502019 28.13119992 12.97038808 25.30011255 14.01171875 21.0546875 C14.67171875 21.0546875 15.33171875 21.0546875 16.01171875 21.0546875 C16.23859375 20.4565625 16.46546875 19.8584375 16.69921875 19.2421875 C18.46340671 16.30187424 19.83480814 15.36688971 23.01171875 14.0546875 C26.94921875 14.4921875 26.94921875 14.4921875 28.8515625 14.92578125 C31.85348649 15.10491957 34.17279086 14.00689648 37.01171875 13.0546875 C46.69219961 12.20966478 56.0205519 13.51147183 65.26171875 16.3671875 C70.0984875 17.25392844 71.71571311 16.24480802 76.01171875 14.0546875 C77.00171875 14.0546875 77.99171875 14.0546875 79.01171875 14.0546875 C80.00171875 12.0746875 80.99171875 10.0946875 82.01171875 8.0546875 C83.66171875 8.0546875 85.31171875 8.0546875 87.01171875 8.0546875 C89.27838081 12.45467855 88.6964895 15.26129224 88.01171875 20.0546875 C88.83143591 22.90370817 88.83143591 22.90370817 90.01171875 25.0546875 C90.93984375 25.1165625 91.86796875 25.1784375 92.82421875 25.2421875 C96.47116933 25.73600168 99.44906781 27.0511214 102.7734375 28.60546875 C103.75658936 29.06219971 104.73974121 29.51893066 105.75268555 29.98950195 C106.4981665 30.34101318 107.24364746 30.69252441 108.01171875 31.0546875 C107.87334079 26.76274604 107.72475936 22.47121821 107.57421875 18.1796875 C107.53490234 16.95636719 107.49558594 15.73304687 107.45507812 14.47265625 C107.39223633 12.72275391 107.39223633 12.72275391 107.328125 10.9375 C107.29146729 9.85871582 107.25480957 8.77993164 107.21704102 7.66845703 C107.17795232 5.07399214 107.17795232 5.07399214 106.01171875 3.0546875 C106.34171875 2.3946875 106.67171875 1.7346875 107.01171875 1.0546875 C109.85077913 0.45940065 112.156062 -0.01412351 115.01171875 0.0546875 C117.01171875 1.4921875 117.01171875 1.4921875 118.01171875 3.0546875 C117.69025879 3.60286133 117.36879883 4.15103516 117.03759766 4.71582031 C115.84271092 7.44000283 115.69657868 9.5088897 115.59765625 12.4765625 C115.53964844 14.01376953 115.53964844 14.01376953 115.48046875 15.58203125 C115.44953125 16.64550781 115.41859375 17.70898438 115.38671875 18.8046875 C115.32871094 20.42310547 115.32871094 20.42310547 115.26953125 22.07421875 C115.17537244 24.73420525 115.08974488 27.3941869 115.01171875 30.0546875 C119.12344574 28.04324293 119.12344574 28.04324293 123.07421875 25.7421875 C125.01171875 25.0546875 125.01171875 25.0546875 127.57421875 25.7421875 C129.88837824 26.98827338 131.18165497 28.22462372 133.01171875 30.0546875 C135.11504766 30.76916393 135.11504766 30.76916393 137.01171875 31.0546875 C136.70234375 30.4978125 136.39296875 29.9409375 136.07421875 29.3671875 C134.44978824 25.83166227 133.74865479 23.28231933 134.57421875 19.4296875 C136.58916404 16.10064745 138.32461396 15.23734375 142.01171875 14.0546875 C146.65794192 14.55249713 149.237959 15.92557099 152.32421875 19.3046875 C155.90516436 23.90739626 157.35610334 28.20014942 157.01171875 34.0546875 C158.66171875 34.0546875 160.31171875 34.0546875 162.01171875 34.0546875 C162.00011719 32.88550781 161.98851562 31.71632813 161.9765625 30.51171875 C161.96717962 28.96354327 161.95807995 27.41536605 161.94921875 25.8671875 C161.94083984 25.09826172 161.93246094 24.32933594 161.92382812 23.53710938 C161.90679941 19.56941961 162.0256776 15.92897516 163.01171875 12.0546875 C162.02171875 12.0546875 161.03171875 12.0546875 160.01171875 12.0546875 C161.16818888 7.13968943 162.27696338 3.67959712 166.01171875 0.0546875 C167.33171875 0.0546875 168.65171875 0.0546875 170.01171875 0.0546875 C170.34171875 5.0046875 170.67171875 9.9546875 171.01171875 15.0546875 C174.47671875 14.5596875 174.47671875 14.5596875 178.01171875 14.0546875 C181.78542943 15.79640012 183.586726 17.41719838 185.88671875 20.8671875 C188.2580486 27.42739344 188.30307637 36.11662845 186.14453125 42.69921875 C185.07421875 44.8046875 185.07421875 44.8046875 183.01171875 48.0546875 C181.67379587 50.91167219 181.67379587 50.91167219 182.91796875 52.953125 C183.459375 53.99339844 183.459375 53.99339844 184.01171875 55.0546875 C185.28126387 62.01277133 183.6747932 67.07023186 179.76953125 72.85546875 C174.29850246 79.70033366 168.49004288 81.01170289 160.01171875 82.0546875 C153.39858132 82.57604693 146.76419695 82.79526179 140.13671875 83.0546875 C121.64270098 83.78154146 106.75953097 84.38117033 91.01171875 95.0546875 C85.31815771 98.85039486 79.64747386 98.92262218 73.01171875 98.0546875 C69.6145171 96.97430535 66.39586545 95.68361533 63.12109375 94.27734375 C60.22307869 93.13779763 57.70375998 92.55865556 54.63671875 92.1171875 C49.44859332 91.18382944 46.32602623 89.14289418 43.01171875 85.0546875 C39.80131778 80.18204846 37.09976559 75.09662774 37.5234375 69.12890625 C39.10980076 62.39003513 42.6478728 56.40375179 48.01171875 52.0546875 C48.67171875 52.0546875 49.33171875 52.0546875 50.01171875 52.0546875 C50.01171875 51.0646875 50.01171875 50.0746875 50.01171875 49.0546875 C49.35171875 49.0546875 48.69171875 49.0546875 48.01171875 49.0546875 C48.01171875 49.7146875 48.01171875 50.3746875 48.01171875 51.0546875 C47.22796875 51.1371875 46.44421875 51.2196875 45.63671875 51.3046875 C42.90197004 51.75509456 42.90197004 51.75509456 41.9765625 53.87109375 C41.65816406 54.59167969 41.33976562 55.31226563 41.01171875 56.0546875 C40.49931641 56.95767578 40.49931641 56.95767578 39.9765625 57.87890625 C36.85777825 63.53540848 35.08495704 68.99679514 36.55859375 75.44921875 C37.29010143 77.69972453 38.10627473 79.86885789 39.01171875 82.0546875 C39.37652344 82.96734375 39.74132812 83.88 40.1171875 84.8203125 C40.41238281 85.55765625 40.70757812 86.295 41.01171875 87.0546875 C40.17769531 86.82652344 39.34367187 86.59835938 38.484375 86.36328125 C31.55760015 84.5938989 26.01600443 83.61478208 19.01171875 85.0546875 C7.45788939 87.31155796 -2.65107387 88.94615909 -12.98828125 82.0546875 C-12.98828125 81.3946875 -12.98828125 80.7346875 -12.98828125 80.0546875 C-13.64828125 80.0546875 -14.30828125 80.0546875 -14.98828125 80.0546875 C-18.71909471 73.67619998 -19.717905 68.40892155 -19.98828125 61.0546875 C-20.97828125 61.0546875 -21.96828125 61.0546875 -22.98828125 61.0546875 C-22.98828125 58.4146875 -22.98828125 55.7746875 -22.98828125 53.0546875 C-21.33828125 53.0546875 -19.68828125 53.0546875 -17.98828125 53.0546875 C-17.98828125 39.1946875 -17.98828125 25.3346875 -17.98828125 11.0546875 C-19.63828125 10.7246875 -21.28828125 10.3946875 -22.98828125 10.0546875 C-23.98828125 9.0546875 -23.98828125 9.0546875 -24.05078125 6.4921875 C-24.03015625 5.6878125 -24.00953125 4.8834375 -23.98828125 4.0546875 C-22.33828125 3.3946875 -20.68828125 2.7346875 -18.98828125 2.0546875 C-18.65828125 3.0446875 -18.32828125 4.0346875 -17.98828125 5.0546875 C-16.95380859 4.49587891 -16.95380859 4.49587891 -15.8984375 3.92578125 C-10.64297187 1.28002558 -5.96339241 -1.04921446 0 0 Z M-9.63012695 7.75292969 C-11.25126387 10.5003823 -11.33653549 12.08811095 -11.28125 15.2578125 C-11.27158203 16.2375 -11.26191406 17.2171875 -11.25195312 18.2265625 C-11.22681641 19.24234375 -11.20167969 20.258125 -11.17578125 21.3046875 C-11.16224609 22.3359375 -11.14871094 23.3671875 -11.13476562 24.4296875 C-11.09945732 26.97188542 -11.05014161 29.51301973 -10.98828125 32.0546875 C-9.66828125 32.0546875 -8.34828125 32.0546875 -6.98828125 32.0546875 C-6.98828125 34.3646875 -6.98828125 36.6746875 -6.98828125 39.0546875 C-3.68616097 38.48535642 -2.09647091 37.66700948 0.01171875 35.0546875 C2.84229916 25.68501225 3.0178369 16.9914126 -0.98828125 8.0546875 C-2.81300016 5.83572614 -2.81300016 5.83572614 -5.42578125 5.6796875 C-8.07780747 5.80137411 -8.07780747 5.80137411 -9.63012695 7.75292969 Z M144.01171875 20.0546875 C144.01171875 21.7046875 144.01171875 23.3546875 144.01171875 25.0546875 C145.33171875 24.7246875 146.65171875 24.3946875 148.01171875 24.0546875 C146.69171875 22.7346875 145.37171875 21.4146875 144.01171875 20.0546875 Z M21.01171875 21.0546875 C20.35171875 22.3746875 19.69171875 23.6946875 19.01171875 25.0546875 C20.66171875 23.7346875 22.31171875 22.4146875 24.01171875 21.0546875 C23.02171875 21.0546875 22.03171875 21.0546875 21.01171875 21.0546875 Z M171.29296875 23.6796875 C168.87687538 28.1582996 169.25222192 33.12486263 170.01171875 38.0546875 C172.1954403 40.77216151 172.1954403 40.77216151 175.01171875 42.0546875 C175.67171875 42.7146875 176.33171875 43.3746875 177.01171875 44.0546875 C179.97065235 39.93722964 180.41876641 36.9611703 180.38671875 31.9296875 C180.39445313 30.71023437 180.4021875 29.49078125 180.41015625 28.234375 C180.25798388 25.11811953 180.25798388 25.11811953 178.73828125 23.125 C175.87473546 21.34986076 173.73869095 21.36736833 171.29296875 23.6796875 Z M62.01171875 44.0546875 C62.01171875 44.7146875 62.01171875 45.3746875 62.01171875 46.0546875 C63.66171875 46.0546875 65.31171875 46.0546875 67.01171875 46.0546875 C67.01171875 45.3946875 67.01171875 44.7346875 67.01171875 44.0546875 C65.36171875 44.0546875 63.71171875 44.0546875 62.01171875 44.0546875 Z M77.01171875 45.0546875 C77.01171875 45.7146875 77.01171875 46.3746875 77.01171875 47.0546875 C79.48671875 47.5496875 79.48671875 47.5496875 82.01171875 48.0546875 C81.68171875 47.3946875 81.35171875 46.7346875 81.01171875 46.0546875 C78.9870862 45.40255458 78.9870862 45.40255458 77.01171875 45.0546875 Z M92.01171875 50.0546875 C92.34171875 51.3746875 92.67171875 52.6946875 93.01171875 54.0546875 C93.67171875 54.0546875 94.33171875 54.0546875 95.01171875 54.0546875 C95.67838542 55.72135417 96.34505208 57.38802083 97.01171875 59.0546875 C97.40359375 59.8590625 97.79546875 60.6634375 98.19921875 61.4921875 C99.26641394 64.85795694 99.04576415 66.67680587 98.01171875 70.0546875 C95.20732396 74.10547997 92.93531257 77.02416786 88.01171875 78.0546875 C83.77694959 77.9631699 80.60698327 77.45153051 77.01171875 75.0546875 C76.32939261 72.7305141 76.00419426 70.44319992 75.63671875 68.05078125 C75.43046875 67.39207031 75.22421875 66.73335937 75.01171875 66.0546875 C74.02171875 65.7246875 73.03171875 65.3946875 72.01171875 65.0546875 C72.25376508 71.85057413 72.25376508 71.85057413 74.76171875 78.0546875 C78.22859457 81.13635489 80.79865595 81.91990274 85.38671875 82.4296875 C89.69656592 81.98384124 92.56488292 80.53312659 96.01171875 78.0546875 C96.96046875 77.3740625 97.90921875 76.6934375 98.88671875 75.9921875 C102.07202081 71.58897583 102.39427881 67.41052833 102.01171875 62.0546875 C100.48093376 56.66560819 97.74134139 53.12255084 93.01171875 50.0546875 C92.68171875 50.0546875 92.35171875 50.0546875 92.01171875 50.0546875 Z " fill="#DAC890" transform="translate(25.98828125,1.9453125)"/>
<path d="M0 0 C4.25932128 2.23304223 6.05547557 6.85575124 8.01171875 11.0546875 C8.50671875 12.0446875 8.50671875 12.0446875 9.01171875 13.0546875 C9.09480513 14.43016906 9.11907891 15.80954546 9.109375 17.1875 C9.10615234 17.99316406 9.10292969 18.79882812 9.09960938 19.62890625 C9.08704102 20.89154297 9.08704102 20.89154297 9.07421875 22.1796875 C9.06970703 23.02917969 9.06519531 23.87867187 9.06054688 24.75390625 C9.04874749 26.85419659 9.03081181 28.9544508 9.01171875 31.0546875 C12.29502019 28.13119992 12.97038808 25.30011255 14.01171875 21.0546875 C14.67171875 21.0546875 15.33171875 21.0546875 16.01171875 21.0546875 C16.23859375 20.4565625 16.46546875 19.8584375 16.69921875 19.2421875 C18.46340671 16.30187424 19.83480814 15.36688971 23.01171875 14.0546875 C26.94921875 14.4921875 26.94921875 14.4921875 28.8515625 14.92578125 C31.85348649 15.10491957 34.17279086 14.00689648 37.01171875 13.0546875 C46.69219961 12.20966478 56.0205519 13.51147183 65.26171875 16.3671875 C70.0984875 17.25392844 71.71571311 16.24480802 76.01171875 14.0546875 C77.00171875 14.0546875 77.99171875 14.0546875 79.01171875 14.0546875 C80.00171875 12.0746875 80.99171875 10.0946875 82.01171875 8.0546875 C83.66171875 8.0546875 85.31171875 8.0546875 87.01171875 8.0546875 C89.2707417 12.4398497 88.7193106 15.27844252 88.01171875 20.0546875 C89.00171875 21.5396875 89.00171875 21.5396875 90.01171875 23.0546875 C90.71019206 29.10812285 89.34759537 32.19383871 86.01171875 37.0546875 C82.8240951 39.17976994 80.74659652 39.5567038 77.01171875 40.0546875 C77.67558594 40.20164063 78.33945313 40.34859375 79.0234375 40.5 C85.32321463 42.10023536 88.50447672 43.51098236 92.01171875 49.0546875 C92.63671875 51.2421875 92.63671875 51.2421875 93.01171875 53.0546875 C93.69621094 53.7353125 93.69621094 53.7353125 94.39453125 54.4296875 C97.86094194 57.91284414 99.93677474 62.21855916 100.13671875 67.1171875 C98.24085782 72.06749103 95.11635391 75.72544424 90.63671875 78.5546875 C86.01484483 79.43504444 81.91106464 78.83390633 77.57421875 77.0546875 C75.04088132 73.8120156 75.17996265 70.06730445 75.01171875 66.0546875 C74.28984375 65.8278125 73.56796875 65.6009375 72.82421875 65.3671875 C69.35001687 63.74589329 67.39869884 62.05546247 65.01171875 59.0546875 C64.57421875 55.8671875 64.57421875 55.8671875 65.01171875 53.0546875 C67.01171875 51.0546875 67.01171875 51.0546875 69.63671875 50.9296875 C70.42046875 50.9709375 71.20421875 51.0121875 72.01171875 51.0546875 C72.01171875 52.3746875 72.01171875 53.6946875 72.01171875 55.0546875 C71.02171875 55.0546875 70.03171875 55.0546875 69.01171875 55.0546875 C69.35958583 57.03005495 69.35958583 57.03005495 70.01171875 59.0546875 C73.11220803 60.60493214 75.59066093 60.34460765 79.01171875 60.0546875 C82.04110569 58.59835626 82.04110569 58.59835626 84.01171875 56.0546875 C84.54508901 52.78779467 84.66494851 51.00187065 82.76171875 48.2421875 C79.33428875 45.91643143 76.27243964 45.96135679 72.26171875 46.4921875 C71.4625 46.59402344 70.66328125 46.69585937 69.83984375 46.80078125 C69.2365625 46.88457031 68.63328125 46.96835937 68.01171875 47.0546875 C67.68171875 46.0646875 67.35171875 45.0746875 67.01171875 44.0546875 C65.69171875 44.3846875 64.37171875 44.7146875 63.01171875 45.0546875 C62.68171875 46.7046875 62.35171875 48.3546875 62.01171875 50.0546875 C60.24096958 50.08174479 58.47010164 50.10110945 56.69921875 50.1171875 C55.71308594 50.12878906 54.72695312 50.14039063 53.7109375 50.15234375 C51.01171875 50.0546875 51.01171875 50.0546875 48.01171875 49.0546875 C48.01171875 49.7146875 48.01171875 50.3746875 48.01171875 51.0546875 C47.22796875 51.1371875 46.44421875 51.2196875 45.63671875 51.3046875 C42.90197004 51.75509456 42.90197004 51.75509456 41.9765625 53.87109375 C41.65816406 54.59167969 41.33976562 55.31226563 41.01171875 56.0546875 C40.49931641 56.95767578 40.49931641 56.95767578 39.9765625 57.87890625 C36.85777825 63.53540848 35.08495704 68.99679514 36.55859375 75.44921875 C37.29010143 77.69972453 38.10627473 79.86885789 39.01171875 82.0546875 C39.37652344 82.96734375 39.74132812 83.88 40.1171875 84.8203125 C40.41238281 85.55765625 40.70757812 86.295 41.01171875 87.0546875 C40.17769531 86.82652344 39.34367187 86.59835938 38.484375 86.36328125 C31.55760015 84.5938989 26.01600443 83.61478208 19.01171875 85.0546875 C7.45788939 87.31155796 -2.65107387 88.94615909 -12.98828125 82.0546875 C-12.98828125 81.3946875 -12.98828125 80.7346875 -12.98828125 80.0546875 C-13.64828125 80.0546875 -14.30828125 80.0546875 -14.98828125 80.0546875 C-18.71909471 73.67619998 -19.717905 68.40892155 -19.98828125 61.0546875 C-20.97828125 61.0546875 -21.96828125 61.0546875 -22.98828125 61.0546875 C-22.98828125 58.4146875 -22.98828125 55.7746875 -22.98828125 53.0546875 C-21.33828125 53.0546875 -19.68828125 53.0546875 -17.98828125 53.0546875 C-17.98828125 39.1946875 -17.98828125 25.3346875 -17.98828125 11.0546875 C-19.63828125 10.7246875 -21.28828125 10.3946875 -22.98828125 10.0546875 C-23.98828125 9.0546875 -23.98828125 9.0546875 -24.05078125 6.4921875 C-24.03015625 5.6878125 -24.00953125 4.8834375 -23.98828125 4.0546875 C-22.33828125 3.3946875 -20.68828125 2.7346875 -18.98828125 2.0546875 C-18.65828125 3.0446875 -18.32828125 4.0346875 -17.98828125 5.0546875 C-16.95380859 4.49587891 -16.95380859 4.49587891 -15.8984375 3.92578125 C-10.64297187 1.28002558 -5.96339241 -1.04921446 0 0 Z M-9.63012695 7.75292969 C-11.25126387 10.5003823 -11.33653549 12.08811095 -11.28125 15.2578125 C-11.27158203 16.2375 -11.26191406 17.2171875 -11.25195312 18.2265625 C-11.22681641 19.24234375 -11.20167969 20.258125 -11.17578125 21.3046875 C-11.16224609 22.3359375 -11.14871094 23.3671875 -11.13476562 24.4296875 C-11.09945732 26.97188542 -11.05014161 29.51301973 -10.98828125 32.0546875 C-9.66828125 32.0546875 -8.34828125 32.0546875 -6.98828125 32.0546875 C-6.98828125 34.3646875 -6.98828125 36.6746875 -6.98828125 39.0546875 C-3.68616097 38.48535642 -2.09647091 37.66700948 0.01171875 35.0546875 C2.84229916 25.68501225 3.0178369 16.9914126 -0.98828125 8.0546875 C-2.81300016 5.83572614 -2.81300016 5.83572614 -5.42578125 5.6796875 C-8.07780747 5.80137411 -8.07780747 5.80137411 -9.63012695 7.75292969 Z M21.01171875 21.0546875 C20.35171875 22.3746875 19.69171875 23.6946875 19.01171875 25.0546875 C20.66171875 23.7346875 22.31171875 22.4146875 24.01171875 21.0546875 C23.02171875 21.0546875 22.03171875 21.0546875 21.01171875 21.0546875 Z " fill="#DAC891" transform="translate(25.98828125,1.9453125)"/>
<path d="M0 0 C0.33 0.99 0.66 1.98 1 3 C0.01 4.485 0.01 4.485 -1 6 C-1.36696181 8.51502177 -1.36696181 8.51502177 -1.4140625 11.32421875 C-1.47207031 12.86625977 -1.47207031 12.86625977 -1.53125 14.43945312 C-1.5621875 15.51130859 -1.593125 16.58316406 -1.625 17.6875 C-1.68300781 19.31268555 -1.68300781 19.31268555 -1.7421875 20.97070312 C-1.83650509 23.64696467 -1.92210005 26.32321843 -2 29 C2.11172699 26.98855543 2.11172699 26.98855543 6.0625 24.6875 C8 24 8 24 10.5625 24.6875 C12.87665949 25.93358588 14.16993622 27.16993622 16 29 C18.10332891 29.71447643 18.10332891 29.71447643 20 30 C19.690625 29.443125 19.38125 28.88625 19.0625 28.3125 C17.43806949 24.77697477 16.73693604 22.22763183 17.5625 18.375 C19.57744529 15.04595995 21.31289521 14.18265625 25 13 C29.64622317 13.49780963 32.22624025 14.87088349 35.3125 18.25 C38.89344561 22.85270876 40.34438459 27.14546192 40 33 C41.65 33 43.3 33 45 33 C44.98839844 31.83082031 44.97679687 30.66164063 44.96484375 29.45703125 C44.95546087 27.90885577 44.9463612 26.36067855 44.9375 24.8125 C44.92912109 24.04357422 44.92074219 23.27464844 44.91210938 22.48242188 C44.89508066 18.51473211 45.01395885 14.87428766 46 11 C45.01 11 44.02 11 43 11 C44.15647013 6.08500193 45.26524463 2.62490962 49 -1 C50.32 -1 51.64 -1 53 -1 C53.495 6.425 53.495 6.425 54 14 C57.465 13.505 57.465 13.505 61 13 C64.77371068 14.74171262 66.57500725 16.36251088 68.875 19.8125 C71.48437909 27.0312613 71.43287041 36.8605088 68.3125 43.875 C66 47 66 47 63.3125 48.0625 C61 48 61 48 60 47 C60.69767442 40.60465116 60.69767442 40.60465116 62 38 C62.12283119 35.66906388 62.17554232 33.33413961 62.1875 31 C62.20167969 29.741875 62.21585937 28.48375 62.23046875 27.1875 C62.34263547 23.90645401 62.34263547 23.90645401 60 22 C57.42459787 22.16507646 57.42459787 22.16507646 55 23 C53.59766933 25.80466134 53.69340064 28.37796106 53.5 31.5 C53.11111111 37.77777778 53.11111111 37.77777778 52 40 C50.35 40 48.7 40 47 40 C46.67 38.35 46.34 36.7 46 35 C45.34 35 44.68 35 44 35 C43.835 36.19625 43.67 37.3925 43.5 38.625 C43.36078125 39.63433594 43.36078125 39.63433594 43.21875 40.6640625 C42.95772315 43.45145635 42.96793205 46.2020713 43 49 C39.95839652 49.30416035 36.92156022 49.56904321 33.875 49.8125 C33.0190625 49.90208984 32.163125 49.99167969 31.28125 50.08398438 C26.77148772 50.41354393 23.95580615 50.48921346 20.3828125 47.51171875 C19.59648437 46.68285156 18.81015625 45.85398438 18 45 C14.85808576 46.53604696 11.91403262 48.05731159 9 50 C2.93617021 49.46808511 2.93617021 49.46808511 0 48 C-1.66605828 47.9549714 -3.33378384 47.96125079 -5 48 C-9.77777778 48.11111111 -9.77777778 48.11111111 -12 47 C-10.125 42.25 -10.125 42.25 -9 40 C-8.97123147 37.32191166 -9.00300478 34.67509575 -9.0859375 32 C-9.10717682 31.20851562 -9.12841614 30.41703125 -9.15029907 29.6015625 C-9.19658285 27.92701018 -9.24551291 26.25252925 -9.296875 24.578125 C-9.37467978 22.01056718 -9.44184303 19.44288611 -9.5078125 16.875 C-9.55404879 15.2499817 -9.60090301 13.62498084 -9.6484375 12 C-9.66828705 11.22914062 -9.6881366 10.45828125 -9.70858765 9.6640625 C-9.76263626 5.70205514 -9.76263626 5.70205514 -11 2 C-10.67 1.34 -10.34 0.68 -10 0 C-6.35346727 -1.11421833 -3.66708957 -0.94296589 0 0 Z M27 19 C27 20.65 27 22.3 27 24 C28.32 23.67 29.64 23.34 31 23 C29.68 21.68 28.36 20.36 27 19 Z " fill="#9A998A" transform="translate(143,3)"/>
<path d="M0 0 C1.65 0 3.3 0 5 0 C7.25902295 4.3851622 6.70759185 7.22375502 6 12 C6.99 13.485 6.99 13.485 8 15 C8.69847331 21.05343535 7.33587662 24.13915121 4 29 C0.81237635 31.12508244 -1.26512223 31.5020163 -5 32 C-4.33613281 32.14695313 -3.67226562 32.29390625 -2.98828125 32.4453125 C3.31149588 34.04554786 6.49275797 35.45629486 10 41 C10.625 43.1875 10.625 43.1875 11 45 C11.45632812 45.45375 11.91265625 45.9075 12.3828125 46.375 C15.84922319 49.85815664 17.92505599 54.16387166 18.125 59.0625 C16.22913907 64.01280353 13.10463516 67.67075674 8.625 70.5 C4.00312608 71.38035694 -0.10065411 70.77921883 -4.4375 69 C-6.97083743 65.7573281 -6.8317561 62.01261695 -7 58 C-7.721875 57.773125 -8.44375 57.54625 -9.1875 57.3125 C-12.66170188 55.69120579 -14.61301991 54.00077497 -17 51 C-17.4375 47.8125 -17.4375 47.8125 -17 45 C-15 43 -15 43 -12.375 42.875 C-11.59125 42.91625 -10.8075 42.9575 -10 43 C-10 44.32 -10 45.64 -10 47 C-10.99 47 -11.98 47 -13 47 C-12.65213292 48.97536745 -12.65213292 48.97536745 -12 51 C-8.89951072 52.55024464 -6.42105782 52.28992015 -3 52 C0.02938694 50.54366876 0.02938694 50.54366876 2 48 C2.53337026 44.73310717 2.65322976 42.94718315 0.75 40.1875 C-2.67743 37.86174393 -5.73927911 37.90666929 -9.75 38.4375 C-10.94882813 38.59025391 -10.94882813 38.59025391 -12.171875 38.74609375 C-12.77515625 38.82988281 -13.3784375 38.91367187 -14 39 C-14 37.68 -14 36.36 -14 35 C-13.360625 34.731875 -12.72125 34.46375 -12.0625 34.1875 C-9.66868314 33.11332248 -9.66868314 33.11332248 -9 30 C-9.598125 29.7525 -10.19625 29.505 -10.8125 29.25 C-13.51690582 27.70462524 -14.56742238 26.79352635 -16 24 C-16.78293494 18.44539402 -16.4075189 13.61663851 -13 9 C-9.45977315 7.1034499 -7.02450677 6 -3 6 C-2.01 4.02 -1.02 2.04 0 0 Z " fill="#4A699E" transform="translate(108,10)"/>
<path d="M0 0 C4.25932128 2.23304223 6.05547557 6.85575124 8.01171875 11.0546875 C8.50671875 12.0446875 8.50671875 12.0446875 9.01171875 13.0546875 C9.16183695 15.46812628 9.23327245 17.8867518 9.26171875 20.3046875 C9.2875 21.60921875 9.31328125 22.91375 9.33984375 24.2578125 C8.98879954 28.31989555 8.0764437 30.5764943 6.01171875 34.0546875 C5.53734375 34.88613281 5.06296875 35.71757813 4.57421875 36.57421875 C0.42210288 42.66744879 0.42210288 42.66744879 -3.890625 43.8515625 C-6.62279457 44.09067129 -9.24998241 44.17848039 -11.98828125 44.0546875 C-12.02566406 44.79074219 -12.06304687 45.52679688 -12.1015625 46.28515625 C-12.81547672 56.88188297 -12.81547672 56.88188297 -15.98828125 60.0546875 C-19.67578125 60.8671875 -19.67578125 60.8671875 -22.98828125 61.0546875 C-22.98828125 58.4146875 -22.98828125 55.7746875 -22.98828125 53.0546875 C-21.33828125 53.0546875 -19.68828125 53.0546875 -17.98828125 53.0546875 C-17.98828125 39.1946875 -17.98828125 25.3346875 -17.98828125 11.0546875 C-19.63828125 10.7246875 -21.28828125 10.3946875 -22.98828125 10.0546875 C-23.98828125 9.0546875 -23.98828125 9.0546875 -24.05078125 6.4921875 C-24.03015625 5.6878125 -24.00953125 4.8834375 -23.98828125 4.0546875 C-22.33828125 3.3946875 -20.68828125 2.7346875 -18.98828125 2.0546875 C-18.65828125 3.0446875 -18.32828125 4.0346875 -17.98828125 5.0546875 C-16.95380859 4.49587891 -16.95380859 4.49587891 -15.8984375 3.92578125 C-10.64297187 1.28002558 -5.96339241 -1.04921446 0 0 Z M-9.63012695 7.75292969 C-11.25126387 10.5003823 -11.33653549 12.08811095 -11.28125 15.2578125 C-11.27158203 16.2375 -11.26191406 17.2171875 -11.25195312 18.2265625 C-11.22681641 19.24234375 -11.20167969 20.258125 -11.17578125 21.3046875 C-11.16224609 22.3359375 -11.14871094 23.3671875 -11.13476562 24.4296875 C-11.09945732 26.97188542 -11.05014161 29.51301973 -10.98828125 32.0546875 C-9.66828125 32.0546875 -8.34828125 32.0546875 -6.98828125 32.0546875 C-6.98828125 34.3646875 -6.98828125 36.6746875 -6.98828125 39.0546875 C-3.68616097 38.48535642 -2.09647091 37.66700948 0.01171875 35.0546875 C2.84229916 25.68501225 3.0178369 16.9914126 -0.98828125 8.0546875 C-2.81300016 5.83572614 -2.81300016 5.83572614 -5.42578125 5.6796875 C-8.07780747 5.80137411 -8.07780747 5.80137411 -9.63012695 7.75292969 Z " fill="#4367A3" transform="translate(25.98828125,1.9453125)"/>
<path d="M0 0 C3.63155982 0.70859704 4.53969152 2.50066329 6.5625 5.5 C9.94379034 10.57193551 9.0221217 16.57154619 8.5625 22.5 C7.82939824 25.18662727 6.9512578 27.06967385 5.5625 29.5 C6.8825 29.5 8.2025 29.5 9.5625 29.5 C9.5625 31.48 9.5625 33.46 9.5625 35.5 C7.79175083 35.52705729 6.02088289 35.54642195 4.25 35.5625 C3.26386719 35.57410156 2.27773437 35.58570313 1.26171875 35.59765625 C-1.4375 35.5 -1.4375 35.5 -4.4375 34.5 C-4.4375 35.16 -4.4375 35.82 -4.4375 36.5 C-7.4075 36.17 -10.3775 35.84 -13.4375 35.5 C-13.4375 34.51 -13.4375 33.52 -13.4375 32.5 C-12.7775 32.5 -12.1175 32.5 -11.4375 32.5 C-11.54700024 28.5410768 -11.67771668 24.58313674 -11.8125 20.625 C-11.85890625 18.93310547 -11.85890625 18.93310547 -11.90625 17.20703125 C-11.94492188 16.13066406 -11.98359375 15.05429687 -12.0234375 13.9453125 C-12.0548584 12.95031738 -12.0862793 11.95532227 -12.11865234 10.93017578 C-12.20997083 8.32145483 -12.20997083 8.32145483 -14.4375 6.5 C-14.0625 3.875 -14.0625 3.875 -13.4375 1.5 C-11.37340431 2.01602392 -9.37695323 2.52201701 -7.375 3.25 C-6.735625 3.3325 -6.09625 3.415 -5.4375 3.5 C-4.963125 3.025625 -4.48875 2.55125 -4 2.0625 C-2.4375 0.5 -2.4375 0.5 0 0 Z " fill="#4B6AA0" transform="translate(78.4375,16.5)"/>
<path d="M0 0 C0.33 4.95 0.66 9.9 1 15 C4.465 14.505 4.465 14.505 8 14 C11.77371068 15.74171262 13.57500725 17.36251088 15.875 20.8125 C18.48437909 28.0312613 18.43287041 37.8605088 15.3125 44.875 C13 48 13 48 10.3125 49.0625 C8 49 8 49 7 48 C7.69767442 41.60465116 7.69767442 41.60465116 9 39 C9.12283119 36.66906388 9.17554232 34.33413961 9.1875 32 C9.20167969 30.741875 9.21585938 29.48375 9.23046875 28.1875 C9.34263547 24.90645401 9.34263547 24.90645401 7 23 C4.42459787 23.16507646 4.42459787 23.16507646 2 24 C0.59766933 26.80466134 0.69340064 29.37796106 0.5 32.5 C0.11111111 38.77777778 0.11111111 38.77777778 -1 41 C-2.65 41 -4.3 41 -6 41 C-7.30433619 35.06372979 -7.11086318 29.16667748 -7.0625 23.125 C-7.05798828 22.05507813 -7.05347656 20.98515625 -7.04882812 19.8828125 C-7.03709749 17.25515014 -7.02068228 14.62760462 -7 12 C-7.99 12 -8.98 12 -10 12 C-7.17647059 0 -7.17647059 0 0 0 Z " fill="#324D7F" transform="translate(196,2)"/>
<path d="M0 0 C0.33 0.66 0.66 1.32 1 2 C3.02463255 2.65213292 3.02463255 2.65213292 5 3 C4.42543617 6.89042016 3.28006931 9.55867496 1.1875 12.875 C0.65382813 13.74125 0.12015625 14.6075 -0.4296875 15.5 C-1.38730741 17.02456901 -2.34965126 18.54620078 -3.3203125 20.0625 C-5.47676651 23.46621823 -5.47676651 23.46621823 -5.8125 27.375 C-5.10870329 28.99670596 -5.10870329 28.99670596 -4 30 C-1.62778044 30.50135199 -1.62778044 30.50135199 1 30 C3.20142332 27.5609294 3.20142332 27.5609294 5 25 C5.66 25 6.32 25 7 25 C6.73701637 28.7694321 6.16190154 30.77431907 3.9375 33.875 C-0.12430205 36.81332489 -2.05578109 36.54935766 -7 36 C-9.5 35 -9.5 35 -11 34 C-10.67 36.31 -10.34 38.62 -10 41 C-11.9375 41.5625 -11.9375 41.5625 -14 42 C-15 41 -15 41 -15.125 38 C-15 35 -15 35 -14 34 C-14.06373589 32.11997635 -14.06373589 32.11997635 -14.375 30 C-14.46523438 29.278125 -14.55546875 28.55625 -14.6484375 27.8125 C-14.82729536 25.98619656 -14.82729536 25.98619656 -16 25 C-17.05202432 18.26279373 -17.47512419 12.40620378 -15 6 C-14.34 6 -13.68 6 -13 6 C-12.773125 5.401875 -12.54625 4.80375 -12.3125 4.1875 C-9.26883227 -0.88527955 -5.46342139 -1.61419268 0 0 Z M-8 6 C-8.66 7.32 -9.32 8.64 -10 10 C-8.35 8.68 -6.7 7.36 -5 6 C-5.99 6 -6.98 6 -8 6 Z " fill="#4B6BA2" transform="translate(55,17)"/>
<path d="M0 0 C-0.165 0.639375 -0.33 1.27875 -0.5 1.9375 C-1.39711084 7.43230392 -2.16138369 12.1417861 0.875 17 C2.83637134 19.03791396 2.83637134 19.03791396 5 20 C4.765625 21.88671875 4.765625 21.88671875 4 24 C0.23095656 26.15707652 -3.7619981 27.12632672 -8.0625 26.6875 C-8.701875 26.460625 -9.34125 26.23375 -10 26 C-9.125 20.125 -9.125 20.125 -8 19 C-7.01489252 9.41441254 -7.01489252 9.41441254 -10.1875 0.625 C-12.70501755 -2.15834464 -12.70501755 -2.15834464 -15.625 -2.625 C-18.06673292 -2.19569991 -18.06673292 -2.19569991 -19.5625 -0.4375 C-20.036875 0.036875 -20.51125 0.51125 -21 1 C-23.97332891 0.71225849 -26.38809637 -0.60076591 -29 -2 C-28.938125 -1.071875 -28.87625 -0.14375 -28.8125 0.8125 C-29 4 -29 4 -30.4375 5.75 C-31.2109375 6.36875 -31.2109375 6.36875 -32 7 C-32.33 7.66 -32.66 8.32 -33 9 C-33.66 9 -34.32 9 -35 9 C-35.33 9.99 -35.66 10.98 -36 12 C-36.45375 12.433125 -36.9075 12.86625 -37.375 13.3125 C-40.32263817 16.37350887 -41.91115862 19.63776547 -42.1875 23.875 C-42.125625 24.57625 -42.06375 25.2775 -42 26 C-40.68 26.66 -39.36 27.32 -38 28 C-40.84326464 28.23053497 -42.46145349 28.35903101 -44.875 26.75 C-46 25 -46 25 -45.68139648 23.11572266 C-45.02092267 21.06496447 -44.23527848 19.29713632 -43.22265625 17.3984375 C-42.87396484 16.74359375 -42.52527344 16.08875 -42.16601562 15.4140625 C-41.80185547 14.74117187 -41.43769531 14.06828125 -41.0625 13.375 C-40.52206055 12.3540625 -40.52206055 12.3540625 -39.97070312 11.3125 C-38.50141913 8.57416593 -37.2096884 6.2096884 -35 4 C-34.3574765 1.93125966 -34.3574765 1.93125966 -34 0 C-35.65 -0.33 -37.3 -0.66 -39 -1 C-38 -3 -38 -3 -35.25 -4.125 C-23.80144764 -7.08097868 -10.51716518 -5.1417252 0 0 Z " fill="#C3B589" transform="translate(94,20)"/>
<path d="M0 0 C4.77302938 1.83971154 6.00918254 5.01114203 8.0703125 9.47265625 C9.33260642 12.90418637 9.43142605 14.60978042 8 18 C5.65246175 21.48083258 3.18545727 24.25129014 -0.375 26.5 C-4.94013126 27.36954881 -9.10971017 27.05426466 -13.19921875 24.7734375 C-15.54506452 22.46321194 -15.58144505 21.05718277 -15.75 17.8125 C-15.80671875 16.91144531 -15.8634375 16.01039062 -15.921875 15.08203125 C-15.94765625 14.39496094 -15.9734375 13.70789063 -16 13 C-15.40832031 12.84144531 -14.81664063 12.68289062 -14.20703125 12.51953125 C-8.9238935 10.95958356 -5.50926311 9.46633487 -2 5 C-0.680982 2.33466965 -0.680982 2.33466965 0 0 Z " fill="#D9C895" transform="translate(117,54)"/>
<path d="M0 0 C0.66 0 1.32 0 2 0 C1.45434955 3.8111585 -0.05785252 5.17756001 -2.9375 7.625 C-6.73250296 11.31079425 -8.33642935 14.16256127 -9.015625 19.41015625 C-8.97858101 25.55019682 -7.36834994 30.36465495 -3.4375 35.0625 C-1.17242641 36.99981299 -1.17242641 36.99981299 1 38 C1 38.66 1 39.32 1 40 C1.98226562 40.03867188 1.98226562 40.03867188 2.984375 40.078125 C9.54881482 40.48608454 15.09647259 41.89748142 21.2890625 44.0625 C27.98270662 46.37730488 32.00411291 46.15106812 38.3984375 43.37890625 C41.12024073 41.9362688 43.47189865 40.28083053 45.9375 38.4375 C55.26214076 31.59063328 66.85462293 30.99291232 78.08203125 30.5 C78.93625168 30.45939453 79.79047211 30.41878906 80.670578 30.37695312 C83.38441583 30.24816282 86.09842307 30.12364155 88.8125 30 C91.51585131 29.87611959 94.21913398 29.7511854 96.92228699 29.62304688 C98.5973905 29.54368728 100.27260827 29.46668743 101.94795227 29.39257812 C106.09047515 29.19683162 110.22539511 28.93638897 114.3581543 28.58984375 C115.55676338 28.49110962 115.55676338 28.49110962 116.77958679 28.39038086 C121.79286585 27.50897366 124.72875738 24.67389866 127.7265625 20.7265625 C131.14301136 15.46425975 132.76798359 11.26444319 133 5 C133.33 5 133.66 5 134 5 C134.81839722 12.12308692 133.78580442 16.83373276 129.7578125 22.80078125 C124.28678371 29.64564616 118.47832413 30.95701539 110 32 C103.38686257 32.52135943 96.7524782 32.74057429 90.125 33 C71.63098223 33.72685396 56.74781222 34.32648283 41 45 C35.30643896 48.79570736 29.63575511 48.86793468 23 48 C19.60279835 46.91961785 16.3841467 45.62892783 13.109375 44.22265625 C10.21135994 43.08311013 7.69204123 42.50396806 4.625 42.0625 C-0.56312543 41.12914194 -3.68569252 39.08820668 -7 35 C-10.21040097 30.12736096 -12.91195316 25.04194024 -12.48828125 19.07421875 C-10.90191799 12.33534763 -7.36384595 6.34906429 -2 2 C-1.34 2 -0.68 2 0 2 C0 1.34 0 0.68 0 0 Z " fill="#D0C2A1" transform="translate(76,52)"/>
<path d="M0 0 C4.12998998 3.61019719 6.95431174 7.56242106 8 13 C8.14247246 16.67375413 8.11767421 20.32594965 8 24 C6.68 24 5.36 24 4 24 C3.690625 23.030625 3.38125 22.06125 3.0625 21.0625 C2.30476658 18.15934208 2.30476658 18.15934208 1 17 C-3.65088715 16.69476038 -3.65088715 16.69476038 -8 18 C-8.46523063 19.89533342 -8.46523063 19.89533342 -8.625 22.0625 C-8.810625 24.0115625 -8.810625 24.0115625 -9 26 C-10.65 26.33 -12.3 26.66 -14 27 C-14.16043779 23.06927419 -14.04595298 20.14027752 -12.8125 16.375 C-11.58859817 13.02370441 -11.58859817 13.02370441 -13.5 10.5 C-15 8 -15 8 -14.5625 4.375 C-13 1 -13 1 -10.3125 -1.0625 C-5.97056526 -2.29134946 -4.09119324 -1.89948257 0 0 Z M-5 4 C-5 5.65 -5 7.3 -5 9 C-3.68 8.67 -2.36 8.34 -1 8 C-2.32 6.68 -3.64 5.36 -5 4 Z " fill="#314C7E" transform="translate(175,18)"/>
<path d="M0 0 C1.32 0.33 2.64 0.66 4 1 C4 8.92 4 16.84 4 25 C3.34 25 2.68 25 2 25 C1.67 25.99 1.34 26.98 1 28 C1 27.34 1 26.68 1 26 C0.4225 26.515625 -0.155 27.03125 -0.75 27.5625 C-3 29 -3 29 -5.25 28.6875 C-5.8275 28.460625 -6.405 28.23375 -7 28 C-6.071875 27.7525 -6.071875 27.7525 -5.125 27.5 C-1.72243051 25.09818625 -1.77387974 21.99837866 -1 18 C-1.721875 18.825 -2.44375 19.65 -3.1875 20.5 C-6 23 -6 23 -8.8125 23.3125 C-9.534375 23.209375 -10.25625 23.10625 -11 23 C-12.47902151 19.15454408 -11.52083105 16.72603608 -10 13 C-8.34781107 9.91112504 -6.71809864 7.24538583 -4 5 C-3.34 5 -2.68 5 -2 5 C-1.34 3.35 -0.68 1.7 0 0 Z " fill="#D8C78F" transform="translate(63,24)"/>
<path d="M0 0 C2.4375 1.0625 2.4375 1.0625 4.25 2.9375 C6.35543914 8.47812933 6.59905981 14.14999634 4.3828125 19.70703125 C2.6582243 22.86537473 0.98672857 25.51327143 -1.5625 28.0625 C-2.5525 28.0625 -3.5425 28.0625 -4.5625 28.0625 C-7.46795644 23.70431534 -6.93060407 19.75212547 -6.9375 14.625 C-6.96199219 13.67044922 -6.98648438 12.71589844 -7.01171875 11.73242188 C-7.04105829 4.74472146 -7.04105829 4.74472146 -4.69921875 1.40625 C-2.5625 0.0625 -2.5625 0.0625 0 0 Z " fill="#D3C490" transform="translate(77.5625,22.9375)"/>
<path d="M0 0 C0.33 0.99 0.66 1.98 1 3 C0.01 4.485 0.01 4.485 -1 6 C-1.33584415 8.69430809 -1.33584415 8.69430809 -1.34375 11.734375 C-1.37339844 12.86617187 -1.40304688 13.99796875 -1.43359375 15.1640625 C-1.45550781 16.34742187 -1.47742188 17.53078125 -1.5 18.75 C-1.76426359 32.83369473 -1.76426359 32.83369473 -4 39 C-4.99 39 -5.98 39 -7 39 C-7.144375 37.865625 -7.28875 36.73125 -7.4375 35.5625 C-7.61171478 32.19222799 -7.61171478 32.19222799 -9 31 C-9.14611964 29.02531359 -9.22738617 27.04575868 -9.28125 25.06640625 C-9.31863281 23.86048828 -9.35601562 22.65457031 -9.39453125 21.41210938 C-9.42933594 20.14173828 -9.46414062 18.87136719 -9.5 17.5625 C-9.56866981 15.06368176 -9.64137856 12.56497019 -9.71875 10.06640625 C-9.74904297 8.95209229 -9.77933594 7.83777832 -9.81054688 6.68969727 C-9.82521039 4.03019286 -9.82521039 4.03019286 -11 2 C-10.67 1.34 -10.34 0.68 -10 0 C-6.35346727 -1.11421833 -3.66708957 -0.94296589 0 0 Z " fill="#334F80" transform="translate(143,3)"/>
<path d="M0 0 C16.02451481 -0.55683642 16.02451481 -0.55683642 22 3 C23 4 23 4 23.4375 6.75 C23 10 23 10 20.4375 12.875 C17.00614394 15.40379558 14.23521088 15.55936747 10 15 C9.01 14.34 8.02 13.68 7 13 C7 11.68 7 10.36 7 9 C7.99 9 8.98 9 10 9 C10 7.68 10 6.36 10 5 C8.02 5.66 6.04 6.32 4 7 C3.67 8.65 3.34 10.3 3 12 C2.67 12 2.34 12 2 12 C2 10.02 2 8.04 2 6 C0.4221875 6.0309375 0.4221875 6.0309375 -1.1875 6.0625 C-4.32704904 6.01103198 -6.96883396 5.73482813 -10 5 C-10 4.67 -10 4.34 -10 4 C-6.7 4 -3.4 4 0 4 C0 2.68 0 1.36 0 0 Z " fill="#D7C693" transform="translate(88,48)"/>
<path d="M0 0 C3.46827222 0.28902269 4.80653554 0.81671788 7.375 3.25 C9 6 9 6 8.9375 8.4375 C6.63890233 14.72033364 4.6044053 18.28734779 -1.515625 21.1953125 C-8.6580329 23.62373119 -8.6580329 23.62373119 -12.49609375 21.83984375 C-15.96399765 19.02719442 -17.78596181 17.13440241 -18.625 12.6875 C-18 10 -18 10 -16 8 C-13.375 7.875 -13.375 7.875 -11 8 C-11 9.32 -11 10.64 -11 12 C-11.99 12 -12.98 12 -14 12 C-13.65213292 13.97536745 -13.65213292 13.97536745 -13 16 C-9.89951072 17.55024464 -7.42105782 17.28992015 -4 17 C-0.97061306 15.54366876 -0.97061306 15.54366876 1 13 C1.58763244 8.8865729 1.33043558 7.49565336 -1 4 C-0.625 1.8125 -0.625 1.8125 0 0 Z " fill="#4A699E" transform="translate(109,45)"/>
<path d="M0 0 C0.34179688 2.97851562 0.34179688 2.97851562 0.68359375 5.95703125 C0.97170735 8.19396393 0.97170735 8.19396393 2 11 C3.65 10.67 5.3 10.34 7 10 C7 8.68 7 7.36 7 6 C6.34 6 5.68 6 5 6 C5 5.01 5 4.02 5 3 C9.75 3.75 9.75 3.75 12 6 C12.56005895 13.05674282 12.56005895 13.05674282 10.8125 16 C8.33235942 17.36835342 6.80579727 17.33402348 4 17 C2.31923769 16.36971413 0.65204456 15.70211894 -1 15 C-2.65919896 14.63128912 -4.3247643 14.28718326 -6 14 C-5.85851011 12.3954444 -5.71164314 10.79136233 -5.5625 9.1875 C-5.48128906 8.29417969 -5.40007812 7.40085937 -5.31640625 6.48046875 C-5 4 -5 4 -4 1 C-1 0 -1 0 0 0 Z " fill="#BCB28F" transform="translate(145,31)"/>
<path d="M0 0 C1.6875 0.1875 1.6875 0.1875 4 1 C5.216875 1.4125 6.43375 1.825 7.6875 2.25 C11 4 11 4 12.125 6.3125 C11.96369088 9.78064609 10.72895428 12.02619865 9 15 C8.01 15 7.02 15 6 15 C6 13.68 6 12.36 6 11 C3.69 11.66 1.38 12.32 -1 13 C-2.66561399 11.33438601 -2.17115945 9.34037295 -2.1875 7.0625 C-2.20167969 6.16660156 -2.21585937 5.27070313 -2.23046875 4.34765625 C-2 2 -2 2 0 0 Z " fill="#D1C291" transform="translate(99,22)"/>
<path d="M0 0 C3.3726934 1.39559727 5.08045102 2.8921588 7 6 C7.165 6.70125 7.33 7.4025 7.5 8.125 C7.88573402 10.40123363 7.88573402 10.40123363 11 12 C4.88535219 14.03821594 -1.09608409 13.28927352 -7 11 C-8.2077558 7.37673261 -7.54311128 6.35853631 -6 3 C-4.35 3 -2.7 3 -1 3 C-0.67 2.01 -0.34 1.02 0 0 Z " fill="#BBAF85" transform="translate(196,40)"/>
<path d="M0 0 C4.26110662 2.13055331 4.26110662 2.13055331 5.875 4.4375 C5.94921875 7.79296875 5.94921875 7.79296875 5.5625 11.625 C5.44261719 12.89730469 5.32273438 14.16960938 5.19921875 15.48046875 C5.09222656 16.45628906 4.98523438 17.43210937 4.875 18.4375 C4.545 18.4375 4.215 18.4375 3.875 18.4375 C3.80152344 17.49777344 3.80152344 17.49777344 3.7265625 16.5390625 C3.65179688 15.72179687 3.57703125 14.90453125 3.5 14.0625 C3.43039063 13.25039063 3.36078125 12.43828125 3.2890625 11.6015625 C3.04607412 9.23415809 3.04607412 9.23415809 0.875 7.4375 C-1.19374034 6.7949765 -1.19374034 6.7949765 -3.125 6.4375 C-3.125 7.4275 -3.125 8.4175 -3.125 9.4375 C-2.465 9.4375 -1.805 9.4375 -1.125 9.4375 C-1.125 10.7575 -1.125 12.0775 -1.125 13.4375 C-2.775 13.7675 -4.425 14.0975 -6.125 14.4375 C-8.57024686 10.76962971 -8.95353297 7.69974693 -8.125 3.4375 C-5.40432213 0.07666263 -4.3108488 -0.77595278 0 0 Z " fill="#365080" transform="translate(153.125,27.5625)"/>
<path d="M0 0 C2.475 0.99 2.475 0.99 5 2 C4.39733215 6.50727647 2.63400206 9.8587963 0.4375 13.8125 C-0.0565332 14.7087207 -0.0565332 14.7087207 -0.56054688 15.62304688 C-1.36773267 17.08533998 -2.18304917 18.5431399 -3 20 C-5.03762823 18.32642801 -5.91576561 17.37350444 -6.50390625 14.765625 C-6.62052198 9.75892297 -6.34888232 6.75431994 -3 2.875 C-2.0228762 1.89335248 -1.03011965 0.92588135 0 0 Z " fill="#D0C196" transform="translate(49,22)"/>
<path d="M0 0 C0.66 0.33 1.32 0.66 2 1 C1.26258907 5.30311948 -0.66436596 7.03592487 -3.9453125 9.73828125 C-7.2675835 11.77838303 -10.14166574 11.86461985 -14 12 C-14.10957031 12.81984375 -14.21914063 13.6396875 -14.33203125 14.484375 C-14.49058594 15.56203125 -14.64914063 16.6396875 -14.8125 17.75 C-14.96332031 18.81734375 -15.11414062 19.8846875 -15.26953125 20.984375 C-16.02129487 24.08791251 -16.77612209 25.73251664 -19 28 C-21.6875 28.25 -21.6875 28.25 -24 28 C-23.360625 27.236875 -22.72125 26.47375 -22.0625 25.6875 C-19.41745293 21.81306486 -19.39210179 17.87278354 -19.17578125 13.29296875 C-19 11 -19 11 -18 10 C-16.29166667 10 -14.58333333 10 -12.875 10 C-9.15706942 9.73339481 -7.50931571 9.4605607 -4.71484375 6.93359375 C-3.00037794 4.68401746 -1.44021406 2.43312615 0 0 Z " fill="#A9A386" transform="translate(32,35)"/>
<path d="M0 0 C2.375 1 2.375 1 3.6875 3.0625 C4.0278125 4.0215625 4.0278125 4.0215625 4.375 5 C2.395 4.01 0.415 3.02 -1.625 2 C-1.955 10.58 -2.285 19.16 -2.625 28 C-3.285 28 -3.945 28 -4.625 28 C-7.53045644 23.64181534 -6.99310407 19.68962547 -7 14.5625 C-7.02449219 13.60794922 -7.04898438 12.65339844 -7.07421875 11.66992188 C-7.10354811 4.68464551 -7.10354811 4.68464551 -4.765625 1.33984375 C-2.625 0 -2.625 0 0 0 Z " fill="#A5A088" transform="translate(77.625,23)"/>
<path d="M0 0 C3.96 0 7.92 0 12 0 C14.125 5.625 14.125 5.625 13 9 C12.01 9.66 11.02 10.32 10 11 C10 11.99 10 12.98 10 14 C9.01 13.67 8.02 13.34 7 13 C7 11.68 7 10.36 7 9 C7.99 9 8.98 9 10 9 C10 7.68 10 6.36 10 5 C8.02 5.66 6.04 6.32 4 7 C3.67 8.65 3.34 10.3 3 12 C2.67 12 2.34 12 2 12 C2 10.02 2 8.04 2 6 C0.4221875 6.0309375 0.4221875 6.0309375 -1.1875 6.0625 C-4.32704904 6.01103198 -6.96883396 5.73482813 -10 5 C-10 4.67 -10 4.34 -10 4 C-6.7 4 -3.4 4 0 4 C0 2.68 0 1.36 0 0 Z " fill="#C8BB93" transform="translate(88,48)"/>
<path d="M0 0 C0.515625 0.268125 1.03125 0.53625 1.5625 0.8125 C2.366875 1.204375 3.17125 1.59625 4 2 C5.5159375 2.804375 5.5159375 2.804375 7.0625 3.625 C13.53372982 6.34319248 20.61037596 5.37201067 27.3125 4 C34.50120803 2.53736244 42.95938341 1.6531278 50 4 C51.32 4 52.64 4 54 4 C54.495 5.98 54.495 5.98 55 8 C53.74896484 7.65775391 53.74896484 7.65775391 52.47265625 7.30859375 C45.5458814 5.5392114 40.00428568 4.56009458 33 6 C22.74404693 8.00334943 13.79345572 9.66168492 4 5 C1.4375 2.875 1.4375 2.875 0 1 C0 0.67 0 0.34 0 0 Z " fill="#CEC0A1" transform="translate(12,81)"/>
<path d="M0 0 C3.3 0.66 6.6 1.32 10 2 C10 7 10 7 8.5625 8.6875 C8.046875 9.120625 7.53125 9.55375 7 10 C6.67 10.66 6.34 11.32 6 12 C5.34 12 4.68 12 4 12 C3.67 12.99 3.34 13.98 3 15 C2.54625 15.433125 2.0925 15.86625 1.625 16.3125 C-1.32263817 19.37350887 -2.91115862 22.63776547 -3.1875 26.875 C-3.125625 27.57625 -3.06375 28.2775 -3 29 C-1.68 29.66 -0.36 30.32 1 31 C-1.84326464 31.23053497 -3.46145349 31.35903101 -5.875 29.75 C-7 28 -7 28 -6.68139648 26.11572266 C-6.02092267 24.06496447 -5.23527848 22.29713632 -4.22265625 20.3984375 C-3.87396484 19.74359375 -3.52527344 19.08875 -3.16601562 18.4140625 C-2.80185547 17.74117187 -2.43769531 17.06828125 -2.0625 16.375 C-1.52206055 15.3540625 -1.52206055 15.3540625 -0.97070312 14.3125 C0.49858087 11.57416593 1.7903116 9.2096884 4 7 C4.6425235 4.93125966 4.6425235 4.93125966 5 3 C3.35 2.67 1.7 2.34 0 2 C0 1.34 0 0.68 0 0 Z " fill="#AAA488" transform="translate(55,17)"/>
<path d="M0 0 C2.875 -0.125 2.875 -0.125 6 0 C8 2 8 2 8.265625 4.09375 C8.26046875 4.8878125 8.2553125 5.681875 8.25 6.5 C8.25515625 7.2940625 8.2603125 8.088125 8.265625 8.90625 C8 11 8 11 6 13 C3.4375 13.1875 3.4375 13.1875 1 13 C0 12 0 12 -0.09765625 9.27734375 C-0.08605469 8.17519531 -0.07445312 7.07304688 -0.0625 5.9375 C-0.05347656 4.83277344 -0.04445312 3.72804687 -0.03515625 2.58984375 C-0.02355469 1.73519531 -0.01195312 0.88054688 0 0 Z " fill="#D9C893" transform="translate(170,34)"/>
<path d="M0 0 C0.66 0 1.32 0 2 0 C2.63019694 8.03501094 2.63019694 8.03501094 0 12.0625 C-0.66 12.701875 -1.32 13.34125 -2 14 C-0.6910428 17.12197478 -0.6910428 17.12197478 2 19 C2 20.32 2 21.64 2 23 C1.34 23 0.68 23 0 23 C-0.680625 22.21625 -1.36125 21.4325 -2.0625 20.625 C-5.82732904 17.26068469 -9.11185793 16.71351965 -14 16 C-13.67 15.34 -13.34 14.68 -13 14 C-11.741875 13.773125 -10.48375 13.54625 -9.1875 13.3125 C-6.68553365 12.74753986 -5.36501668 12.39801253 -3.6171875 10.4921875 C-1.65514396 7.134913 -0.47115553 3.88703316 0 0 Z " fill="#ADA586" transform="translate(116,27)"/>
<path d="M0 0 C0.66 0 1.32 0 2 0 C3.35386936 1.65002828 4.68678142 3.3174387 6 5 C6.66 5.33 7.32 5.66 8 6 C7.78515625 7.890625 7.78515625 7.890625 7 10 C4.93359375 11.046875 4.93359375 11.046875 2.4375 11.75 C1.19806641 12.11351562 1.19806641 12.11351562 -0.06640625 12.484375 C-1.02353516 12.73960938 -1.02353516 12.73960938 -2 13 C-3.08828929 9.73513213 -2.89901381 8.63009917 -2.125 5.375 C-1.94195312 4.57835937 -1.75890625 3.78171875 -1.5703125 2.9609375 C-1 1 -1 1 0 0 Z " fill="#D3C393" transform="translate(91,34)"/>
<path d="M0 0 C0 0.33 0 0.66 0 1 C-0.75925781 0.96519531 -1.51851562 0.93039063 -2.30078125 0.89453125 C-3.29464844 0.86746094 -4.28851563 0.84039063 -5.3125 0.8125 C-6.29863281 0.77769531 -7.28476563 0.74289063 -8.30078125 0.70703125 C-11.40693142 1.04416766 -12.02825373 1.70571499 -14 4 C-15.9375 3.75 -15.9375 3.75 -18 3 C-21.94863735 1.8718179 -25.92893381 1.47495772 -30 1 C-21.4038987 -4.7307342 -9.54595064 -2.1425781 0 0 Z " fill="#CCBF9D" transform="translate(87,17)"/>
<path d="M0 0 C0.33 0 0.66 0 1 0 C1 7.92 1 15.84 1 24 C0.34 24 -0.32 24 -1 24 C-1.33 24.99 -1.66 25.98 -2 27 C-2 26.34 -2 25.68 -2 25 C-2.5775 25.515625 -3.155 26.03125 -3.75 26.5625 C-6 28 -6 28 -8.25 27.6875 C-8.8275 27.460625 -9.405 27.23375 -10 27 C-9.35546875 26.76539062 -8.7109375 26.53078125 -8.046875 26.2890625 C-5.7922092 25.18838927 -5.7922092 25.18838927 -5.390625 22.8359375 C-5.34421875 22.02382813 -5.2978125 21.21171875 -5.25 20.375 C-5.19328125 19.55773437 -5.1365625 18.74046875 -5.078125 17.8984375 C-5.05234375 17.27195312 -5.0265625 16.64546875 -5 16 C-3.35 16 -1.7 16 0 16 C0 10.72 0 5.44 0 0 Z " fill="#B1AB8F" transform="translate(66,25)"/>
<path d="M0 0 C1.2065625 0.0309375 1.2065625 0.0309375 2.4375 0.0625 C4.70416206 4.46249105 4.12227075 7.26910474 3.4375 12.0625 C4.25721716 14.91152067 4.25721716 14.91152067 5.4375 17.0625 C4.4475 16.7325 3.4575 16.4025 2.4375 16.0625 C1.08310332 13.35370665 1.37248549 11.05316732 1.4375 8.0625 C-1.5325 7.5675 -1.5325 7.5675 -4.5625 7.0625 C-3.5234375 0.0859375 -3.5234375 0.0859375 0 0 Z " fill="#436299" transform="translate(110.5625,9.9375)"/>
<path d="M0 0 C0.33 0 0.66 0 1 0 C1 2.31 1 4.62 1 7 C1.99 7 2.98 7 4 7 C4 7.99 4 8.98 4 10 C4.66 10.33 5.32 10.66 6 11 C5.01 11 4.02 11 3 11 C3 11.99 3 12.98 3 14 C3.99 14.33 4.98 14.66 6 15 C-1.75 16.125 -1.75 16.125 -4 15 C-3.71125 14.38125 -3.4225 13.7625 -3.125 13.125 C-1.58288195 8.84133876 -0.81601453 4.47071788 0 0 Z " fill="#48628F" transform="translate(135,35)"/>
<path d="M0 0 C1.65 0 3.3 0 5 0 C5 0.66 5 1.32 5 2 C4.34 2 3.68 2 3 2 C2.71253906 2.58394531 2.42507812 3.16789062 2.12890625 3.76953125 C1.43707318 5.13644018 0.72093865 6.49177981 -0.03515625 7.82421875 C-3.13400036 13.44455578 -4 18.62354809 -4 25 C-4.66 25 -5.32 25 -6 25 C-7.84397847 21.31204306 -7.52198354 17.58217809 -6.24609375 13.71484375 C-4.36297525 9.29136146 -2.24856082 5.59662091 1 2 C0.67 1.34 0.34 0.68 0 0 Z " fill="#CDBFA0" transform="translate(66,52)"/>
<path d="M0 0 C0.99 0.33 1.98 0.66 3 1 C-4.09538971 6.73089169 -10.01256266 7.89530027 -19 7 C-22.11654606 6.23730097 -25.04785171 5.25242655 -28 4 C-24.30994802 2.68976415 -21.64405021 3.36557459 -17.875 4.1875 C-11.23423725 5.32677307 -6.81263251 4.31618137 -1 1 C-0.67 0.67 -0.34 0.34 0 0 Z " fill="#D9CCAF" transform="translate(118,93)"/>
<path d="M0 0 C2 1 2 1 2.796875 2.83203125 C3 5 3 5 1.890625 6.88671875 C1.34921875 7.48097656 0.8078125 8.07523438 0.25 8.6875 C-0.28109375 9.28949219 -0.8121875 9.89148438 -1.359375 10.51171875 C-4.23285157 13.1183725 -6.99316177 13.11604113 -10.6875 13.0625 C-11.89986328 13.04896484 -11.89986328 13.04896484 -13.13671875 13.03515625 C-14.05904297 13.01775391 -14.05904297 13.01775391 -15 13 C-12.48964152 11.68976904 -10.22239496 10.75005552 -7.5 9.875 C-2.94846065 7.43667535 -1.79232551 4.68676422 0 0 Z " fill="#A5A189" transform="translate(117,54)"/>
<path d="M0 0 C2.16295027 2.16295027 2.5534013 3.05244857 3 6 C2 9 2 9 -1 11 C-1 11.99 -1 12.98 -1 14 C-1.99 13.67 -2.98 13.34 -4 13 C-4 11.68 -4 10.36 -4 9 C-3.01 9 -2.02 9 -1 9 C-1 7.68 -1 6.36 -1 5 C-2.65 5 -4.3 5 -6 5 C-4.68 4.34 -3.36 3.68 -2 3 C-2.66 2.34 -3.32 1.68 -4 1 C-2.125 0.375 -2.125 0.375 0 0 Z " fill="#ACA68D" transform="translate(99,48)"/>
<path d="M0 0 C0.33 0 0.66 0 1 0 C0.67 3.96 0.34 7.92 0 12 C1.8253125 11.87625 1.8253125 11.87625 3.6875 11.75 C7.16639526 11.72528316 7.93832664 11.95888443 11 14 C11.66 14.66 12.32 15.32 13 16 C9.0946863 16.22316078 6.57288993 15.51847822 3 14 C1.34080104 13.63128912 -0.3247643 13.28718326 -2 13 C-1.85851011 11.3954444 -1.71164314 9.79136233 -1.5625 8.1875 C-1.48128906 7.29417969 -1.40007812 6.40085937 -1.31640625 5.48046875 C-1 3 -1 3 0 0 Z " fill="#9C9A85" transform="translate(141,32)"/>
<path d="M0 0 C3.16115776 1.36983503 3.9927092 1.9890638 6 5 C6.19653731 7.81221769 6.2786442 10.50298115 6.25 13.3125 C6.25773437 14.05951172 6.26546875 14.80652344 6.2734375 15.57617188 C6.25754136 20.10259648 5.70711751 23.73898051 4 28 C3.34 28 2.68 28 2 28 C2.875 22.125 2.875 22.125 4 21 C4.65232949 13.02233117 4.96396203 6.51520017 0 0 Z " fill="#8A8E87" transform="translate(82,18)"/>
<path d="M0 0 C0.66 0 1.32 0 2 0 C1.67 3.63 1.34 7.26 1 11 C1.99 11.33 2.98 11.66 4 12 C2.34385343 12.38218767 0.67542976 12.71395102 -1 13 C-2.66561399 11.33438601 -2.17115945 9.34037295 -2.1875 7.0625 C-2.20167969 6.16660156 -2.21585937 5.27070313 -2.23046875 4.34765625 C-2 2 -2 2 0 0 Z " fill="#BCB086" transform="translate(99,22)"/>
<path d="M0 0 C0.99 0 1.98 0 3 0 C3.144375 1.093125 3.28875 2.18625 3.4375 3.3125 C3.88288104 6.93122987 3.88288104 6.93122987 5 10 C4.01 10.99 3.02 11.98 2 13 C-0.20914 9.68629 -0.22481553 8.6553979 -0.125 4.8125 C-0.10695312 3.91144531 -0.08890625 3.01039062 -0.0703125 2.08203125 C-0.04710937 1.39496094 -0.02390625 0.70789063 0 0 Z " fill="#A6A186" transform="translate(43,29)"/>
<path d="M0 0 C4.75 0.75 4.75 0.75 7 3 C7.26991906 5.68839385 7.08737357 8.29141936 7 11 C6.34 9.68 5.68 8.36 5 7 C3.35 7.33 1.7 7.66 0 8 C0.66 7.67 1.32 7.34 2 7 C2 5.68 2 4.36 2 3 C1.34 3 0.68 3 0 3 C0 2.01 0 1.02 0 0 Z " fill="#A39F87" transform="translate(150,34)"/>
<path d="M0 0 C0.66 0.33 1.32 0.66 2 1 C1.74357696 2.91864771 1.46926564 4.83490994 1.1875 6.75 C1.03667969 7.81734375 0.88585938 8.8846875 0.73046875 9.984375 C-0.02129487 13.08791251 -0.77612209 14.73251664 -3 17 C-5.6875 17.25 -5.6875 17.25 -8 17 C-6.625 15.5 -6.625 15.5 -5 14 C-4.34 14 -3.68 14 -3 14 C-2.01 9.38 -1.02 4.76 0 0 Z " fill="#BEB185" transform="translate(16,46)"/>
<path d="M0 0 C0.66 0.33 1.32 0.66 2 1 C1.79375 1.94875 1.5875 2.8975 1.375 3.875 C0.64284543 8.75937364 1.84637049 13.2615383 3 18 C-0.59272269 14.48602192 -2.1098799 12.03787159 -2.25 6.9375 C-2 3 -2 3 0 0 Z " fill="#CDBF9D" transform="translate(66,66)"/>
<path d="M0 0 C1.04116106 3.20622446 1.13486303 3.72441033 -0.4375 6.9375 C-0.953125 7.948125 -1.46875 8.95875 -2 10 C-2.25284367 12.75146274 -2.25284367 12.75146274 -2 15 C-0.68 15.66 0.64 16.32 2 17 C-0.84326464 17.23053497 -2.46145349 17.35903101 -4.875 15.75 C-6 14 -6 14 -5.73046875 12.21875 C-4.86244172 9.5821759 -3.70457383 7.21916951 -2.4375 4.75 C-1.75494141 3.41195312 -1.75494141 3.41195312 -1.05859375 2.046875 C-0.70925781 1.37140625 -0.35992187 0.6959375 0 0 Z " fill="#999886" transform="translate(54,31)"/>
<path d="M0 0 C1.134375 0.020625 2.26875 0.04125 3.4375 0.0625 C3.4375 0.3925 3.4375 0.7225 3.4375 1.0625 C1.7875 1.0625 0.1375 1.0625 -1.5625 1.0625 C-1.61148437 1.65417969 -1.66046875 2.24585938 -1.7109375 2.85546875 C-2.12706867 7.25354472 -2.61215595 11.03178897 -4.5625 15.0625 C-5.2225 15.0625 -5.8825 15.0625 -6.5625 15.0625 C-6.2325 14.0725 -5.9025 13.0825 -5.5625 12.0625 C-5.26010965 9.19819136 -5.05484231 6.33330066 -4.84375 3.4609375 C-4.39353214 -0.37842039 -4.05790617 0.07119134 0 0 Z " fill="#90938A" transform="translate(17.5625,44.9375)"/>
<path d="M0 0 C0.66 0 1.32 0 2 0 C1.67 1.65 1.34 3.3 1 5 C0.34 5 -0.32 5 -1 5 C-1 5.66 -1 6.32 -1 7 C1.31 7 3.62 7 6 7 C4 9 4 9 0.375 9.125 C-0.73875 9.08375 -1.8525 9.0425 -3 9 C-3.33 7.68 -3.66 6.36 -4 5 C-2.68 4.34 -1.36 3.68 0 3 C0 2.01 0 1.02 0 0 Z " fill="#BEB288" transform="translate(101,54)"/>
<path d="M0 0 C0.33 0 0.66 0 1 0 C1.66 3.63 2.32 7.26 3 11 C1.68 11.33 0.36 11.66 -1 12 C-2 11 -2 11 -2.1875 8.25 C-2.00187851 5.03256076 -1.36114502 2.89243317 0 0 Z " fill="#61789D" transform="translate(42,47)"/>
<path d="M0 0 C0.99 0 1.98 0 3 0 C2.88544319 1.91731918 2.75793742 3.8338675 2.625 5.75 C2.55539063 6.81734375 2.48578125 7.8846875 2.4140625 8.984375 C2.0271777 11.80206432 1.44313834 13.5830366 0 16 C-0.66 15.67 -1.32 15.34 -2 15 C-1.67 14.67 -1.34 14.34 -1 14 C-0.76472227 11.65012738 -0.58613583 9.29443961 -0.4375 6.9375 C-0.35371094 5.64714844 -0.26992187 4.35679688 -0.18359375 3.02734375 C-0.12300781 2.02832031 -0.06242188 1.02929688 0 0 Z " fill="#9B9987" transform="translate(159,33)"/>
<path d="M0 0 C0.5775 0.20625 1.155 0.4125 1.75 0.625 C-1.64156934 4.01656934 -5.29965108 4.57748255 -10 4.8125 C-13.25 4.625 -13.25 4.625 -15.25 3.625 C-15.25 2.965 -15.25 2.305 -15.25 1.625 C-14.64671875 1.64820312 -14.0434375 1.67140625 -13.421875 1.6953125 C-12.62265625 1.71335937 -11.8234375 1.73140625 -11 1.75 C-9.81664063 1.78480469 -9.81664063 1.78480469 -8.609375 1.8203125 C-5.27862626 1.54458827 -3.29423067 -0.54903844 0 0 Z " fill="#CEC09D" transform="translate(121.25,81.375)"/>
<path d="M0 0 C1.32 0.33 2.64 0.66 4 1 C4.04241723 3.33294775 4.04092937 5.66702567 4 8 C3 9 3 9 -0.0625 9.0625 C-1.031875 9.041875 -2.00125 9.02125 -3 9 C-1.68 8.34 -0.36 7.68 1 7 C0.67 4.69 0.34 2.38 0 0 Z " fill="#B2A986" transform="translate(44,51)"/>
<path d="M0 0 C0.33 0 0.66 0 1 0 C1 1.98 1 3.96 1 6 C-0.98 6.99 -0.98 6.99 -3 8 C-4.65 6.68 -6.3 5.36 -8 4 C-6.865625 3.71125 -5.73125 3.4225 -4.5625 3.125 C-3.386875 2.75375 -2.21125 2.3825 -1 2 C-0.67 1.34 -0.34 0.68 0 0 Z " fill="#D1C28F" transform="translate(155,39)"/>
<path d="M0 0 C1.98 0.66 3.96 1.32 6 2 C5.67 3.65 5.34 5.3 5 7 C4.01 7.33 3.02 7.66 2 8 C0.74335022 5.09399739 0 3.20395416 0 0 Z " fill="#D0C199" transform="translate(88,18)"/>
<path d="M0 0 C1.10844919 3.32534757 0.84454356 5.62182575 0 9 C-0.99 9.33 -1.98 9.66 -3 10 C-3.29296875 3.9453125 -3.29296875 3.9453125 -3 2 C-2.01 1.34 -1.02 0.68 0 0 Z " fill="#9F9C85" transform="translate(169,34)"/>
<path d="M0 0 C5.94 2.475 5.94 2.475 12 5 C12 5.99 12 6.98 12 8 C7.71 6.35 3.42 4.7 -1 3 C-0.67 2.01 -0.34 1.02 0 0 Z " fill="#D9CCAE" transform="translate(120,27)"/>
<path d="M0 0 C0.33 0 0.66 0 1 0 C1.02690104 2.79173055 1.04679053 5.58320348 1.0625 8.375 C1.07087891 9.1690625 1.07925781 9.963125 1.08789062 10.78125 C1.11328125 16.7734375 1.11328125 16.7734375 0 19 C-0.66 19 -1.32 19 -2 19 C-1.34 12.73 -0.68 6.46 0 0 Z " fill="#B2A884" transform="translate(88,27)"/>
<path d="M0 0 C0.33 0.99 0.66 1.98 1 3 C-3.32734391 5.22923777 -6.28400182 4.92470553 -11 4 C-11 3.34 -11 2.68 -11 2 C-9.01432292 2.06510417 -7.02864583 2.13020833 -5.04296875 2.1953125 C-2.68640281 2.13254462 -2.68640281 2.13254462 0 0 Z " fill="#CFC1A2" transform="translate(118,76)"/>
<path d="M0 0 C0.33 0 0.66 0 1 0 C1.3633218 6.41868512 1.3633218 6.41868512 -0.25 9 C-2 10 -2 10 -4.1875 9.6875 C-4.785625 9.460625 -5.38375 9.23375 -6 9 C-5.38125 8.814375 -4.7625 8.62875 -4.125 8.4375 C-0.94397134 6.28562767 -0.80548053 3.62466237 0 0 Z " fill="#A8A286" transform="translate(62,43)"/>
<path d="M0 0 C4.8 3.44615385 4.8 3.44615385 5.8125 6.25 C5.874375 6.8275 5.93625 7.405 6 8 C5.01 8.33 4.02 8.66 3 9 C2.34 8.67 1.68 8.34 1 8 C1.020625 7.236875 1.04125 6.47375 1.0625 5.6875 C1.12942841 2.89814214 1.12942841 2.89814214 0 0 Z " fill="#D1C39E" transform="translate(197,40)"/>
<path d="M0 0 C1.1875 1.625 1.1875 1.625 2 4 C0.625 7.25 0.625 7.25 -1 10 C-1.66 9.34 -2.32 8.68 -3 8 C-2.64700993 4.55834679 -1.95418308 2.93127462 0 0 Z " fill="#56719E" transform="translate(51,31)"/>
<path d="M0 0 C0.66 0.33 1.32 0.66 2 1 C0.35 4.3 -1.3 7.6 -3 11 C-3.66 11 -4.32 11 -5 11 C-3.77472971 6.94718288 -2.30119506 3.55639236 0 0 Z " fill="#C5B685" transform="translate(56,32)"/>
<path d="M0 0 C0.66 0.99 1.32 1.98 2 3 C1.00200236 6.99199058 -0.55799862 8.82006579 -4 11 C-3.67 9.68 -3.34 8.36 -3 7 C-2.34 7 -1.68 7 -1 7 C-0.67 4.69 -0.34 2.38 0 0 Z " fill="#DACEB0" transform="translate(123,67)"/>
<path d="M0 0 C0.66 0.66 1.32 1.32 2 2 C1.625 4.125 1.625 4.125 1 6 C0.01 5.34 -0.98 4.68 -2 4 C-2.33 4.66 -2.66 5.32 -3 6 C-3.33 4.68 -3.66 3.36 -4 2 C-2.68 1.34 -1.36 0.68 0 0 Z " fill="#D0C2A0" transform="translate(37,32)"/>
<path d="M0 0 C0.66 0.33 1.32 0.66 2 1 C1.67 1.53625 1.34 2.0725 1 2.625 C-0.24091523 5.57217367 -0.20678166 7.82934784 0 11 C0.33 11.66 0.66 12.32 1 13 C0.01 12.67 -0.98 12.34 -2 12 C-2.05395478 10.37536158 -2.09277195 8.75021459 -2.125 7.125 C-2.14820312 6.22007813 -2.17140625 5.31515625 -2.1953125 4.3828125 C-2 2 -2 2 0 0 Z " fill="#919287" transform="translate(99,22)"/>
<path d="M0 0 C0.99 0 1.98 0 3 0 C3 2.97 3 5.94 3 9 C2.34 9 1.68 9 1 9 C-0.4783226 6.04335481 -0.06032783 3.25770263 0 0 Z " fill="#D6C4A5" transform="translate(59,68)"/>
<path d="M0 0 C2.31 0 4.62 0 7 0 C7 0.66 7 1.32 7 2 C7.66 2.33 8.32 2.66 9 3 C7.3125 3.75 7.3125 3.75 5 4 C2.25 2.0625 2.25 2.0625 0 0 Z " fill="#BAAF88" transform="translate(65,17)"/>
<path d="M0 0 C0.66 1.32 1.32 2.64 2 4 C0.35 5.98 -1.3 7.96 -3 10 C-3.66 9.67 -4.32 9.34 -5 9 C-4.360625 8.071875 -3.72125 7.14375 -3.0625 6.1875 C-0.91377907 3.15780057 -0.91377907 3.15780057 0 0 Z " fill="#BFB287" transform="translate(118,55)"/>
<path d="M0 0 C1.65 0 3.3 0 5 0 C5.33 0.99 5.66 1.98 6 3 C5.67 3.66 5.34 4.32 5 5 C4.01 5 3.02 5 2 5 C2 3.68 2 2.36 2 1 C1.34 0.67 0.68 0.34 0 0 Z " fill="#B2A986" transform="translate(103,32)"/>
<path d="M0 0 C0.66 0.33 1.32 0.66 2 1 C1.67 1.99 1.34 2.98 1 4 C1.87914688 6.6569191 1.87914688 6.6569191 3 9 C2.01 8.67 1.02 8.34 0 8 C-0.38063221 5.6739143 -0.71269945 3.33944736 -1 1 C-0.67 0.67 -0.34 0.34 0 0 Z " fill="#2F4B82" transform="translate(113,18)"/>
<path d="M0 0 C0.33 0 0.66 0 1 0 C1.08886184 3.19902639 0.91058531 5.92677456 0 9 C-0.99 8.67 -1.98 8.34 -3 8 C-3 6.68 -3 5.36 -3 4 C-2.01 4 -1.02 4 0 4 C0 2.68 0 1.36 0 0 Z " fill="#828A8B" transform="translate(98,53)"/>
<path d="M0 0 C0.33 0.66 0.66 1.32 1 2 C1.66 2 2.32 2 3 2 C3 2.99 3 3.98 3 5 C1.68 5.33 0.36 5.66 -1 6 C-1.042721 4.33388095 -1.04063832 2.66617115 -1 1 C-0.67 0.67 -0.34 0.34 0 0 Z " fill="#506D9F" transform="translate(42,53)"/>
<path d="M0 0 C4 2 4 2 6 5 C5.67 6.32 5.34 7.64 5 9 C3.35 6.03 1.7 3.06 0 0 Z " fill="#949586" transform="translate(82,18)"/>
</svg>
